<?xml version="1.0" standalone="no"?>
<!DOCTYPE svg PUBLIC "-//W3C//DTD SVG 20010904//EN"
 "http://www.w3.org/TR/2001/REC-SVG-20010904/DTD/svg10.dtd">
<svg version="1.0" xmlns="http://www.w3.org/2000/svg"
 width="128.000000pt" height="128.000000pt" viewBox="0 0 128.000000 128.000000"
 preserveAspectRatio="xMidYMid meet">
<metadata>
Created by potrace 1.11, written by Peter Selinger 2001-2013
</metadata>
<g transform="translate(0.000000,128.000000) scale(0.100000,-0.100000)"
fill="#000000" stroke="none">
<path d="M65 1078 c-3 -7 -4 -209 -3 -448 l3 -435 104 -3 c103 -3 103 -3 98
20 -3 13 -9 46 -12 74 -7 49 -6 51 29 77 85 65 258 127 356 127 100 0 276 -64
360 -130 36 -29 37 -31 29 -72 -4 -24 -8 -55 -9 -70 l0 -28 100 0 100 0 -2
448 -3 447 -97 3 -98 3 0 -28 c1 -15 5 -47 9 -71 8 -43 8 -43 -37 -78 -135
-103 -310 -145 -464 -113 -65 14 -178 66 -236 108 l-43 32 7 74 7 75 -97 0
c-68 0 -98 -4 -101 -12z m181 -35 c-30 -145 -45 -462 -29 -614 6 -58 5 -86 -2
-86 -5 0 -21 -3 -35 -6 -14 -3 -42 -8 -62 -12 l-38 -7 0 376 0 376 86 0 86 0
-6 -27z m954 -277 l0 -303 -47 -6 c-27 -3 -55 -8 -64 -12 -15 -5 -17 18 -22
222 -4 132 -13 264 -21 313 -9 47 -16 86 -16 88 0 1 38 2 85 2 l85 0 0 -304z"/>
</g>
</svg>
